<?xml version="1.0" encoding="UTF-8"?>
<svg width="259px" height="189px" viewBox="0 0 259 189" version="1.1" xmlns="http://www.w3.org/2000/svg" xmlns:xlink="http://www.w3.org/1999/xlink">
    <!-- Generator: Sketch 54.1 (76490) - https://sketchapp.com -->
    <title>Group</title>
    <desc>Created with Sketch.</desc>
    <defs>
        <path d="M134.921,59.034 C100.432,38.192 84.153,-25.84 30.91,12.424 C-22.332,50.687 -0.255,129.302 50.767,148.314 C101.789,167.326 167.432,156.586 185.905,121.267 C217.47,60.915 158.056,73.015 134.921,59.034" id="path-1"></path>
    </defs>
    <g id="Page-1" stroke="none" stroke-width="1" fill="none" fill-rule="evenodd">
        <g id="878" transform="translate(-184.000000, -167.000000)">
            <g id="Group" transform="translate(184.740481, 167.092000)">
                <path d="M175.180519,74.942 C140.691519,54.1 124.412519,-9.932 71.1695192,28.332 C17.9275192,66.595 40.0045192,145.21 91.0265192,164.222 C142.048519,183.234 207.691519,172.494 226.164519,137.175 C257.729519,76.823 198.315519,88.923 175.180519,74.942" id="Fill-24" fill="#DBDCE7"></path>
                <g id="Group-27" transform="translate(40.259519, 15.908000)">
                    <mask id="mask-2" fill="white">
                        <use xlink:href="#path-1"></use>
                    </mask>
                    <g id="Clip-26"></g>
                    <path d="M-4.984,133.116 C-4.984,133.116 24.427,103.624 73.55,117.617 C122.673,131.612 151.595,119.615 145.496,45.459 C145.496,45.459 214.54,55.092 205.688,104.152 C194.945,163.69 56.279,186.409 -4.984,133.116" id="Fill-25" fill="#CDCEDE" mask="url(#mask-2)"></path>
                </g>
                <path d="M99.6885192,27.842 L99.6885192,56.602 C99.6885192,59.082 97.6765192,61.087 95.1955192,61.087 L33.8695192,61.087 C31.3885192,61.087 29.3765192,59.082 29.3765192,56.602 L29.3765192,27.842 C29.3765192,25.362 31.3885192,23.358 33.8695192,23.358 L95.1955192,23.358 C97.6765192,23.358 99.6885192,25.362 99.6885192,27.842" id="Fill-28" fill="#B1B6D1"></path>
                <path d="M99.6885192,27.842 L99.6885192,30.331 L29.3765192,30.331 L29.3765192,27.842 C29.3765192,25.362 31.3885192,23.358 33.8695192,23.358 L95.1955192,23.358 C97.6765192,23.358 99.6885192,25.362 99.6885192,27.842" id="Fill-29" fill="#6A9AC5"></path>
                <path d="M34.2815192,27.176 C34.2815192,27.697 33.8595192,28.119 33.3395192,28.119 C32.8195192,28.119 32.3975192,27.697 32.3975192,27.176 C32.3975192,26.656 32.8195192,26.234 33.3395192,26.234 C33.8595192,26.234 34.2815192,26.656 34.2815192,27.176" id="Fill-30" fill="#FFFFFE"></path>
                <path d="M38.0515192,27.176 C38.0515192,27.697 37.6305192,28.119 37.1095192,28.119 C36.5895192,28.119 36.1675192,27.697 36.1675192,27.176 C36.1675192,26.656 36.5895192,26.234 37.1095192,26.234 C37.6305192,26.234 38.0515192,26.656 38.0515192,27.176" id="Fill-31" fill="#FFFFFE"></path>
                <path d="M41.8235192,27.176 C41.8235192,27.697 41.4005192,28.119 40.8805192,28.119 C40.3595192,28.119 39.9385192,27.697 39.9385192,27.176 C39.9385192,26.656 40.3595192,26.234 40.8805192,26.234 C41.4005192,26.234 41.8235192,26.656 41.8235192,27.176" id="Fill-32" fill="#FFFFFE"></path>
                <path d="M53.0515192,47.594 L38.9335192,47.594 C38.4725192,47.594 38.0985192,47.221 38.0985192,46.76 L38.0985192,35.334 C38.0985192,34.874 38.4725192,34.5 38.9335192,34.5 L53.0515192,34.5 C53.5125192,34.5 53.8855192,34.874 53.8855192,35.335 L53.8855192,46.76 C53.8855192,47.221 53.5125192,47.594 53.0515192,47.594" id="Fill-33" fill="#FFFFFE"></path>
                <path d="M89.9665192,53.72 L38.1025192,53.72 C37.5545192,53.72 37.1095192,53.276 37.1095192,52.728 C37.1095192,52.18 37.5545192,51.735 38.1025192,51.735 L89.9665192,51.735 C90.5145192,51.735 90.9585192,52.18 90.9585192,52.728 C90.9585192,53.276 90.5145192,53.72 89.9665192,53.72" id="Fill-34" fill="#FFFFFE"></path>
                <path d="M89.9665192,46.228 L58.5015192,46.228 C57.9535192,46.228 57.5095192,45.783 57.5095192,45.235 C57.5095192,44.687 57.9535192,44.243 58.5015192,44.243 L89.9665192,44.243 C90.5145192,44.243 90.9585192,44.687 90.9585192,45.235 C90.9585192,45.783 90.5145192,46.228 89.9665192,46.228" id="Fill-35" fill="#FFFFFE"></path>
                <path d="M77.9895192,39.187 L58.5015192,39.187 C57.9535192,39.187 57.5095192,38.743 57.5095192,38.195 C57.5095192,37.647 57.9535192,37.202 58.5015192,37.202 L77.9895192,37.202 C78.5375192,37.202 78.9815192,37.647 78.9815192,38.195 C78.9815192,38.743 78.5375192,39.187 77.9895192,39.187" id="Fill-36" fill="#FFFFFE"></path>
                <path d="M0.449519184,82.968 L0.788519184,83.263 C0.788519184,83.263 1.07051918,82.939 1.43951918,82.539 C1.80751918,82.141 2.26751918,81.665 2.59051918,81.388 C3.08751918,80.957 3.56251918,80.462 4.18751918,80.076 C4.81251918,79.692 5.57851918,79.404 6.70451918,79.401 C7.46251918,79.401 8.38451918,79.537 9.51851918,79.883 C9.85051918,79.985 10.1855192,80.124 10.5315192,80.271 C10.7375192,80.356 10.9735192,80.392 11.2655192,80.393 C11.9625192,80.393 12.9595192,80.149 13.9585192,79.357 C15.0095192,78.52 15.7265192,77.807 16.4805192,77.329 C17.2355192,76.853 18.0265192,76.567 19.3765192,76.544 L19.4225192,76.544 C20.1375192,76.546 20.6675192,76.758 21.1525192,77.108 C21.8775192,77.632 22.4655192,78.508 23.1065192,79.389 C23.7515192,80.262 24.4635192,81.158 25.5555192,81.611 C26.4385192,81.971 27.9155192,82.297 29.3115192,82.587 C30.0075192,82.731 30.6775192,82.862 31.2265192,82.976 C31.7715192,83.088 32.2095192,83.188 32.3835192,83.247 L32.5255192,82.821 L32.5235192,82.372 L0.447519184,82.519 L0.449519184,82.968 L0.788519184,83.263 L0.449519184,82.968 L0.451519184,83.418 L32.5275192,83.27 C32.7475192,83.269 32.9345192,83.109 32.9685192,82.892 C33.0035192,82.675 32.8755192,82.464 32.6675192,82.395 C32.3985192,82.306 31.9675192,82.212 31.4085192,82.096 C30.5755192,81.924 29.4855192,81.714 28.4545192,81.486 C27.4275192,81.259 26.4505192,81.008 25.8965192,80.779 C24.8115192,80.347 24.0635192,79.164 23.1965192,77.985 C22.7605192,77.401 22.2875192,76.825 21.6815192,76.382 C21.0775192,75.938 20.3275192,75.642 19.4225192,75.645 L19.3635192,75.646 C17.8905192,75.661 16.8665192,76.012 15.9965192,76.572 C15.1265192,77.13 14.4095192,77.853 13.3995192,78.653 C12.5635192,79.317 11.7575192,79.495 11.2655192,79.495 C11.0655192,79.497 10.9145192,79.46 10.8815192,79.443 C10.5335192,79.296 10.1705192,79.143 9.78151918,79.024 C8.57951918,78.657 7.57051918,78.503 6.70451918,78.503 C5.41951918,78.5 4.45451918,78.852 3.71451918,79.312 C2.97551918,79.771 2.45251918,80.323 2.00451918,80.706 C1.25451918,81.354 0.118519184,82.666 0.110519184,82.673 C-0.00548081585,82.806 -0.0324808158,82.995 0.0405191842,83.156 C0.113519184,83.316 0.274519184,83.418 0.451519184,83.418 L0.449519184,82.968" id="Fill-37" fill="#D7D9E5"></path>
                <path d="M174.824519,24.138 C174.824519,24.138 177.076519,21.547 178.457519,20.36 C180.943519,18.222 183.794519,14.443 192.913519,17.228 C193.621519,17.444 194.307519,17.732 194.990519,18.021 C195.794519,18.361 198.284519,18.37 200.834519,16.345 C204.887519,13.128 206.472519,10.7 212.023519,10.624 C218.483519,10.537 219.499519,18.589 224.519519,20.651 C227.715519,21.962 236.144519,23.266 237.888519,23.847 L174.824519,24.138" id="Fill-38" fill="#D7D9E5"></path>
                <path d="M124.983519,48.2 L124.517519,46.866 L124.052519,48.2 C123.659519,49.325 122.725519,50.275 121.463519,50.836 C122.725519,51.397 123.659519,52.347 124.052519,53.472 L124.517519,54.807 L124.983519,53.472 C125.376519,52.347 126.309519,51.397 127.572519,50.836 C126.309519,50.275 125.376519,49.325 124.983519,48.2" id="Fill-39" fill="#FFFFFE"></path>
                <path d="M82.8815192,124.496 L82.4155192,123.161 L81.9495192,124.496 C81.5565192,125.621 80.6235192,126.57 79.3605192,127.132 C80.6235192,127.692 81.5565192,128.643 81.9495192,129.768 L82.4155192,131.103 L82.8815192,129.768 C83.2735192,128.643 84.2065192,127.692 85.4705192,127.132 C84.2065192,126.57 83.2735192,125.621 82.8815192,124.496" id="Fill-40" fill="#FFFFFE"></path>
                <path d="M209.105519,116.457 L208.798519,115.577 L208.490519,116.457 C208.231519,117.199 207.616519,117.826 206.782519,118.196 C207.616519,118.567 208.231519,119.193 208.490519,119.936 L208.798519,120.817 L209.105519,119.936 C209.364519,119.193 209.979519,118.567 210.813519,118.196 C209.979519,117.826 209.364519,117.199 209.105519,116.457" id="Fill-41" fill="#FFFFFE"></path>
                <path d="M62.5315192,72.168 L62.2235192,71.287 L61.9165192,72.168 C61.6575192,72.91 61.0415192,73.537 60.2085192,73.907 C61.0415192,74.277 61.6575192,74.903 61.9165192,75.646 L62.2235192,76.526 L62.5315192,75.646 C62.7905192,74.903 63.4065192,74.277 64.2395192,73.907 C63.4065192,73.537 62.7905192,72.91 62.5315192,72.168" id="Fill-42" fill="#FFFFFE"></path>
                <path d="M162.274519,0 L133.087519,0 C131.495519,0 130.204519,1.286 130.204519,2.877 L130.204519,18.646 C130.204519,20.237 131.495519,21.524 133.087519,21.524 L134.658519,21.524 L134.658519,28.739 L141.873519,21.524 L162.274519,21.524 C163.866519,21.524 165.157519,20.237 165.157519,18.646 L165.157519,2.877 C165.157519,1.286 163.866519,0 162.274519,0" id="Fill-43" fill="#6A9AC5"></path>
                <path d="M137.183519,15.446 L144.069519,15.446 C144.600519,15.446 145.031519,15.877 145.031519,16.408 C145.031519,16.939 144.600519,17.369 144.069519,17.369 L137.183519,17.369 C136.652519,17.369 136.222519,16.939 136.222519,16.408 C136.222519,15.877 136.652519,15.446 137.183519,15.446" id="Fill-44" fill="#FFFFFE"></path>
                <path d="M137.183519,10.629 L149.872519,10.629 C150.403519,10.629 150.834519,11.06 150.834519,11.591 C150.834519,12.122 150.403519,12.552 149.872519,12.552 L137.183519,12.552 C136.652519,12.552 136.222519,12.122 136.222519,11.591 C136.222519,11.06 136.652519,10.629 137.183519,10.629" id="Fill-45" fill="#FFFFFE"></path>
                <path d="M137.183519,5.947 L158.997519,5.947 C159.528519,5.947 159.959519,6.378 159.959519,6.909 C159.959519,7.44 159.528519,7.871 158.997519,7.871 L137.183519,7.871 C136.652519,7.871 136.222519,7.44 136.222519,6.909 C136.222519,6.378 136.652519,5.947 137.183519,5.947" id="Fill-46" fill="#FFFFFE"></path>
                <path d="M144.181519,135.305 L177.978519,135.305 C184.761519,135.305 190.456519,130.2 191.195519,123.458 L196.069519,72.727 L162.290519,72.727 L161.600519,102.142 L144.181519,135.305" id="Fill-47" fill="#B0B5D0"></path>
                <path d="M144.181519,134.758 C152.863519,134.41 161.546519,134.257 170.228519,134.117 L176.740519,134.066 C177.266519,134.054 177.862519,134.075 178.332519,134.035 C178.824519,134.02 179.313519,133.98 179.797519,133.89 C180.768519,133.746 181.715519,133.46 182.613519,133.074 C186.240519,131.555 188.975519,128.164 189.733519,124.323 C189.906519,123.416 189.993519,122.28 190.100519,121.209 L191.054519,111.489 C191.462519,107.168 191.935519,102.854 192.392519,98.537 C193.297519,89.903 194.251519,81.274 195.298519,72.653 C195.349519,72.228 195.735519,71.924 196.161519,71.976 C196.572519,72.026 196.869519,72.392 196.842519,72.801 C196.226519,81.465 195.520519,90.122 194.764519,98.774 C194.390519,103.1 194.034519,107.428 193.611519,111.749 L192.696519,121.476 C192.587519,122.564 192.527519,123.596 192.306519,124.826 C191.408519,129.514 188.076519,133.704 183.611519,135.453 C182.511519,135.905 181.356519,136.233 180.178519,136.39 C179.590519,136.487 178.998519,136.527 178.404519,136.537 C177.790519,136.57 177.299519,136.539 176.740519,136.543 L170.228519,136.492 C161.546519,136.353 152.863519,136.199 144.181519,135.852 C143.879519,135.839 143.644519,135.585 143.656519,135.282 C143.668519,134.996 143.899519,134.77 144.181519,134.758" id="Fill-48" fill="#38394E"></path>
                <polygon id="Fill-49" fill="#38394E" points="162.259519 172.091 164.755519 172.091 164.755519 136.263 162.259519 136.263"></polygon>
                <polygon id="Fill-50" fill="#38394E" points="60.9405192 104.392 169.888519 104.392 169.888519 102.697 60.9405192 102.697"></polygon>
                <polyline id="Fill-51" fill="#E0AB8B" points="157.039519 178.855 158.196519 182.999 152.566519 184.705 150.806519 179.588 157.039519 178.855"></polyline>
                <polyline id="Fill-52" fill="#E0AB8B" points="123.052519 175.846 123.052519 179.174 128.036519 179.174 128.592519 175.846 123.052519 175.846"></polyline>
                <path d="M161.334519,79.567 L153.806519,98.149 L153.639519,98.562 C153.191519,99.667 152.118519,100.335 150.994519,100.33 L129.557519,100.177 C128.690519,100.17 127.993519,99.463 127.999519,98.596 C128.005519,97.81 128.587519,97.163 129.342519,97.054 L150.554519,93.956 L147.742519,96.138 L152.809519,76.739 C153.437519,74.335 155.896519,72.895 158.301519,73.523 C160.705519,74.151 162.145519,76.61 161.517519,79.014 C161.470519,79.196 161.402519,79.397 161.334519,79.567" id="Fill-53" fill="#D39B7C"></path>
                <path d="M131.887519,96.683 L124.566519,96.531 C122.757519,96.531 121.289519,98.165 121.289519,100.181 L131.979519,100.181 L131.887519,96.683" id="Fill-54" fill="#D39B7C"></path>
                <path d="M149.481519,81.828 L161.203519,84.691 L163.126519,74.244 C163.642519,71.437 161.688519,68.767 158.813519,68.352 C156.394519,68.003 154.059519,69.375 153.229519,71.633 L149.481519,81.828" id="Fill-55" fill="#5E5A97"></path>
                <path d="M161.600519,102.142 L125.487519,120.469 C122.136519,122.169 120.110519,125.695 120.331519,129.447 L123.052519,175.846 L128.592519,175.846 L136.067519,126.201 L164.183519,106.46 L161.600519,102.142" id="Fill-56" fill="#2A293B"></path>
                <path d="M155.227519,38.771 C155.227519,38.771 165.264519,35.359 170.536519,44.862 C170.842519,45.415 171.178519,45.946 171.586519,46.428 C172.657519,47.693 174.889519,50.022 177.350519,50.777 C187.117519,53.774 193.298519,72.241 173.857519,73.884 C149.529519,75.942 142.621519,71.144 146.101519,61.445 C148.584519,54.529 146.367519,49.619 146.367519,49.619 L155.227519,38.771" id="Fill-57" fill="#22222F"></path>
                <path d="M163.239519,63.556 L158.047519,65.867 C154.954519,67.242 152.971519,70.319 153.011519,73.703 C153.091519,80.521 154.638519,97.449 160.397519,103.928 L177.955519,103.928 C180.673519,91.934 179.106519,73.502 179.106519,73.502 C179.282519,68.982 175.959519,65.085 171.469519,64.546 L163.239519,63.556" id="Fill-58" fill="#444287"></path>
                <path d="M163.723519,69.147 L163.723519,69.147 C161.893519,69.359 160.233519,68.061 160.000519,66.234 L158.571519,55.075 L165.250519,54.299 L166.669519,65.38 C166.906519,67.237 165.581519,68.93 163.723519,69.147" id="Fill-59" fill="#DAA180"></path>
                <path d="M158.208519,63.403 L157.941519,63.438 C153.490519,64.018 149.412519,60.88 148.831519,56.429 L147.563519,46.706 L163.949519,44.57 L165.217519,54.293 C165.797519,58.744 162.659519,62.822 158.208519,63.403" id="Fill-60" fill="#E0AB8B"></path>
                <path d="M165.748519,50.558 L164.350519,53.457 C164.350519,53.457 162.489519,55.069 161.962519,51.016 C161.514519,47.583 159.022519,48.179 159.022519,48.179 C159.022519,48.179 150.484519,54.638 145.469519,50.206 C141.511519,46.708 147.908519,40.306 155.227519,38.771 L164.829519,42.965 L165.748519,50.558" id="Fill-61" fill="#22222F"></path>
                <path d="M163.383519,53.574 C163.562519,55.06 164.913519,56.118 166.398519,55.939 C167.885519,55.759 168.943519,54.409 168.764519,52.923 C168.584519,51.437 167.233519,50.379 165.748519,50.558 C164.262519,50.738 163.203519,52.088 163.383519,53.574" id="Fill-62" fill="#E0AB8B"></path>
                <path d="M165.589519,54.516 C165.621519,54.783 165.864519,54.974 166.132519,54.942 C166.399519,54.909 166.590519,54.666 166.557519,54.398 C166.525519,54.13 166.282519,53.94 166.014519,53.972 C165.747519,54.005 165.556519,54.248 165.589519,54.516" id="Fill-63" fill="#FFFFFE"></path>
                <path d="M151.741519,58.695 L156.340519,57.717 C156.340519,57.717 156.561519,59.714 154.043519,60.075 C152.056519,60.36 151.741519,58.695 151.741519,58.695" id="Fill-64" fill="#FFFFFE"></path>
                <path d="M177.955519,103.928 L160.397519,103.928 L132.310519,120.899 C128.999519,122.9 127.686519,127.047 129.245519,130.589 L150.806519,179.588 L157.039519,178.855 L145.451519,131.571 C155.177519,131.16 173.235519,129.692 177.955519,124.432 C185.940519,115.531 177.955519,103.928 177.955519,103.928" id="Fill-65" fill="#38394E"></path>
                <path d="M118.078519,73.181 L128.096519,100.104 L95.5385192,100.104 L86.2705192,74.744 C85.9935192,73.985 86.5565192,73.181 87.3635192,73.181 L118.078519,73.181" id="Fill-66" fill="#6A9AC5"></path>
                <path d="M118.078519,73.181 L119.637519,73.181 C120.473519,73.181 121.222519,73.703 121.512519,74.488 L130.957519,100.104 L128.096519,100.104 L118.078519,73.181" id="Fill-67" fill="#83AFD2"></path>
                <path d="M97.9785192,102.697 L128.096519,102.697 L128.096519,100.104 L95.6285192,100.104 L95.6285192,100.347 C95.6285192,101.645 96.6815192,102.697 97.9785192,102.697" id="Fill-68" fill="#578EBE"></path>
                <path d="M128.096519,102.697 L148.187519,102.697 C148.903519,102.697 149.484519,102.116 149.484519,101.4 C149.484519,100.684 148.903519,100.104 148.187519,100.104 L128.096519,100.104 L128.096519,102.697" id="Fill-69" fill="#619FC9"></path>
                <path d="M109.922519,86.564 C110.538519,88.423 109.795519,90.343 108.263519,90.85 C106.729519,91.358 104.988519,90.261 104.372519,88.401 C103.756519,86.541 104.499519,84.621 106.032519,84.114 C107.564519,83.607 109.306519,84.703 109.922519,86.564" id="Fill-70" fill="#DCE8E7"></path>
                <path d="M175.072519,79.059 L167.530519,97.997 L167.364519,98.415 C166.917519,99.538 165.831519,100.22 164.691519,100.215 L143.251519,100.074 C142.376519,100.068 141.672519,99.355 141.678519,98.48 C141.682519,97.687 142.269519,97.035 143.030519,96.923 L164.238519,93.783 L161.399519,96.001 L166.453519,76.252 C167.075519,73.822 169.549519,72.357 171.979519,72.978 C174.409519,73.6 175.875519,76.074 175.253519,78.504 C175.206519,78.687 175.139519,78.887 175.072519,79.059" id="Fill-71" fill="#E0AB8B"></path>
                <path d="M145.577519,96.529 L138.257519,96.375 C136.447519,96.375 134.980519,98.04 134.980519,100.093 L145.671519,100.093 L145.577519,96.529" id="Fill-72" fill="#E0AB8B"></path>
                <path d="M163.173519,81.399 L174.893519,84.315 L176.816519,73.673 C177.334519,70.814 175.380519,68.095 172.505519,67.672 C170.086519,67.317 167.751519,68.714 166.921519,71.014 L163.173519,81.399" id="Fill-73" fill="#5E5A97"></path>
                <path d="M148.912519,180.729 L146.177519,183.429 L140.031519,184.924 C139.398519,185.078 138.886519,185.542 138.670519,186.157 L138.358519,187.047 C138.203519,187.488 138.537519,187.949 139.005519,187.94 L158.786519,187.459 C159.431519,187.445 159.930519,186.893 159.877519,186.251 L158.318519,180.648 L155.329519,181.362 C154.329519,181.694 153.235519,181.581 152.325519,181.051 L151.262519,180.432 C150.501519,179.988 149.538519,180.11 148.912519,180.729" id="Fill-74" fill="#222731"></path>
                <path d="M120.520519,176.842 L117.785519,179.542 L111.639519,181.037 C111.007519,181.192 110.495519,181.655 110.278519,182.271 L109.967519,183.16 C109.811519,183.602 110.145519,184.063 110.613519,184.053 L128.518519,183.676 C129.162519,183.662 129.662519,183.109 129.609519,182.467 L129.144519,176.742 L126.937519,177.476 C125.937519,177.808 124.844519,177.694 123.933519,177.164 L122.870519,176.545 C122.109519,176.102 121.146519,176.224 120.520519,176.842" id="Fill-75" fill="#222731"></path>
                <path d="M204.300519,60.911 L254.556519,60.911 C256.262519,60.911 257.643519,59.53 257.643519,57.825 L257.643519,43.571 C257.643519,41.867 256.262519,40.485 254.556519,40.485 L204.300519,40.485 C202.596519,40.485 201.214519,41.867 201.214519,43.571 L201.214519,57.825 C201.214519,59.53 202.596519,60.911 204.300519,60.911" id="Fill-76" fill="#3E4287"></path>
                <path d="M240.129519,56.559 L250.527519,56.559 C251.065519,56.559 251.501519,56.124 251.501519,55.585 L251.501519,45.811 C251.501519,45.273 251.065519,44.837 250.527519,44.837 L240.129519,44.837 C239.591519,44.837 239.155519,45.273 239.155519,45.811 L239.155519,55.585 C239.155519,56.124 239.591519,56.559 240.129519,56.559" id="Fill-77" fill="#FFFFFE"></path>
                <path d="M208.196519,47.291 L235.045519,47.291 C235.509519,47.291 235.886519,46.915 235.886519,46.451 C235.886519,45.987 235.509519,45.61 235.045519,45.61 L208.196519,45.61 C207.732519,45.61 207.356519,45.987 207.356519,46.451 C207.356519,46.915 207.732519,47.291 208.196519,47.291" id="Fill-78" fill="#FFFFFE"></path>
                <path d="M225.673519,51.539 L235.045519,51.539 C235.509519,51.539 235.886519,51.163 235.886519,50.699 L235.886519,50.698 C235.886519,50.234 235.509519,49.858 235.045519,49.858 L225.673519,49.858 C225.209519,49.858 224.833519,50.234 224.833519,50.698 L224.833519,50.699 C224.833519,51.163 225.209519,51.539 225.673519,51.539" id="Fill-79" fill="#FFFFFE"></path>
                <path d="M208.196519,51.539 L219.399519,51.539 C219.863519,51.539 220.239519,51.163 220.239519,50.699 L220.239519,50.698 C220.239519,50.234 219.863519,49.858 219.399519,49.858 L208.196519,49.858 C207.732519,49.858 207.356519,50.234 207.356519,50.698 L207.356519,50.699 C207.356519,51.163 207.732519,51.539 208.196519,51.539" id="Fill-80" fill="#FFFFFE"></path>
                <path d="M214.918519,55.786 L235.045519,55.786 C235.509519,55.786 235.886519,55.409 235.886519,54.945 C235.886519,54.482 235.509519,54.105 235.045519,54.105 L214.918519,54.105 C214.454519,54.105 214.078519,54.482 214.078519,54.945 C214.078519,55.409 214.454519,55.786 214.918519,55.786" id="Fill-81" fill="#FFFFFE"></path>
                <path d="M79.1835192,94.538 C79.1835192,94.538 87.4685192,94.567 85.7465192,86.041 C85.7465192,86.041 77.0565192,86.901 79.1835192,94.538" id="Fill-82" fill="#6A9AC5"></path>
                <path d="M78.1455192,94.081 C78.1455192,94.081 69.7595192,94.11 71.5025192,85.479 C71.5025192,85.479 80.3005192,86.349 78.1455192,94.081" id="Fill-83" fill="#6A9AC5"></path>
                <path d="M78.5305192,94.11 C78.5305192,94.11 72.4235192,87.956 79.6265192,82.531 C79.6265192,82.531 85.4135192,89.689 78.5305192,94.11" id="Fill-84" fill="#578EBE"></path>
                <polyline id="Fill-85" fill="#444287" points="85.2315192 93.389 71.8305192 93.389 73.9645192 102.692 82.9275192 102.692 85.2315192 93.389"></polyline>
                <polygon id="Fill-86" fill="#38394E" points="110.861519 170.017 112.861519 170.017 112.861519 104.392 110.861519 104.392"></polygon>
            </g>
        </g>
    </g>
</svg>